<?xml version="1.0" standalone="no"?>
<!DOCTYPE svg PUBLIC "-//W3C//DTD SVG 20010904//EN"
 "http://www.w3.org/TR/2001/REC-SVG-20010904/DTD/svg10.dtd">
<svg version="1.0" xmlns="http://www.w3.org/2000/svg"
 width="567.000000pt" height="567.000000pt" viewBox="0 0 567.000000 567.000000"
 preserveAspectRatio="xMidYMid meet">
<metadata>
Created by potrace 1.11, written by Peter Selinger 2001-2013
</metadata>
<g transform="translate(0.000000,567.000000) scale(0.100000,-0.100000)"
fill="#000000" stroke="none">
<path d="M0 2835 l0 -2835 2835 0 2835 0 0 2835 0 2835 -2835 0 -2835 0 0
-2835z m2503 2380 c100 -49 210 -189 261 -332 12 -32 15 -35 21 -18 40 119
159 187 330 188 99 1 138 -11 194 -59 51 -43 71 -95 71 -189 l0 -80 25 37 c80
118 265 124 378 12 34 -35 60 -84 72 -138 l6 -28 28 44 c55 87 128 132 216
131 98 0 184 -50 244 -139 84 -128 51 -273 -84 -362 -49 -33 -49 -34 28 -47
37 -6 99 -51 118 -86 20 -39 28 -117 18 -181 -11 -69 -65 -198 -83 -198 -7 0
-171 -76 -364 -169 -284 -137 -423 -196 -711 -305 -197 -75 -363 -136 -370
-136 -12 0 -1382 586 -1488 636 -124 59 -140 164 -38 252 73 65 179 99 271 88
30 -3 54 -4 54 -2 0 3 -9 20 -20 38 -56 95 -68 220 -30 302 56 118 206 176
306 117 20 -12 38 -20 40 -19 1 2 -7 30 -18 63 -17 48 -21 85 -22 185 -1 116
1 129 26 183 50 107 172 209 284 236 70 18 173 7 237 -24z m-656 -3525 c36
-17 84 -50 113 -79 l50 -50 -39 -52 c-60 -80 -121 -210 -121 -258 0 -55 34
-91 85 -91 20 0 44 4 54 10 10 5 41 57 70 114 60 125 131 205 198 224 58 17
157 0 217 -38 117 -74 166 -237 116 -380 -38 -109 -17 -161 72 -174 99 -15
167 -102 176 -226 5 -77 -8 -110 -68 -170 -80 -80 -183 -105 -275 -66 -49 21
-105 73 -105 98 0 11 -11 30 -25 43 -34 35 -87 33 -143 -5 -79 -53 -178 -49
-247 11 -38 33 -51 66 -61 153 -9 76 -35 106 -94 106 -30 0 -47 -6 -65 -25
-14 -13 -25 -29 -25 -34 0 -16 -72 -58 -139 -81 -73 -24 -195 -27 -267 -5
-148 44 -208 203 -133 353 47 95 124 153 233 177 l30 6 -25 12 c-68 34 -77
165 -20 282 81 165 264 225 438 145z"/>
<path d="M2406 4800 c-181 -64 -304 -217 -314 -390 l-4 -76 -51 -23 c-106 -49
-178 -155 -185 -273 -4 -61 -2 -69 21 -92 20 -20 36 -26 67 -26 56 0 85 30 95
99 13 97 95 155 184 131 65 -17 116 -98 104 -162 -7 -36 21 -83 58 -98 28 -12
39 -11 95 9 53 19 68 21 102 11 61 -16 112 -90 112 -163 0 -33 45 -67 90 -67
62 0 90 33 90 104 0 168 -147 316 -314 316 l-53 0 -18 45 c-22 60 -98 136
-164 166 l-53 24 7 49 c9 70 30 115 77 163 82 84 192 107 286 59 100 -51 154
-127 167 -239 6 -46 13 -62 37 -82 44 -38 79 -33 138 20 27 24 67 49 89 55 79
21 161 -10 209 -80 23 -34 24 -40 18 -158 -6 -121 -6 -123 18 -147 18 -18 36
-25 65 -25 35 0 49 7 97 51 72 65 128 90 203 90 117 1 184 -62 204 -191 9 -59
16 -76 40 -96 37 -32 78 -31 117 3 32 27 32 27 28 107 -7 142 -90 269 -215
331 -79 39 -218 47 -306 18 l-57 -20 -11 41 c-55 206 -260 311 -490 251 -24
-6 -29 -1 -57 47 -40 71 -136 159 -218 199 -58 29 -79 34 -158 36 -72 3 -103
-1 -150 -17z"/>
</g>
</svg>
